<svg xmlns="http://www.w3.org/2000/svg" viewBox="0 0 1200 630" width="1200" height="630" role="img" aria-label="Infrastructure">
  <defs>
    <linearGradient id="bg-infrastructure" x1="0" y1="0" x2="1" y2="1">
      <stop offset="0%" stop-color="#1E40AF"/>
      <stop offset="100%" stop-color="#0F172A"/>
    </linearGradient>
    <radialGradient id="glow-infrastructure" cx="0.15" cy="0.15" r="0.7">
      <stop offset="0%" stop-color="#ffffff" stop-opacity="0.18"/>
      <stop offset="100%" stop-color="#ffffff" stop-opacity="0"/>
    </radialGradient>
  </defs>
  <rect width="1200" height="630" fill="url(#bg-infrastructure)"/>
  <rect width="1200" height="630" fill="url(#glow-infrastructure)"/>
  <text x="80" y="280" font-family="ui-sans-serif, system-ui, -apple-system, 'Segoe UI', Roboto, sans-serif" font-size="104" font-weight="800" fill="#ffffff" letter-spacing="-2">Infrastructure</text>
  <text x="80" y="350" font-family="ui-sans-serif, system-ui, -apple-system, 'Segoe UI', Roboto, sans-serif" font-size="36" font-weight="500" fill="#ffffff" fill-opacity="0.78">Self-hosted apps on a Raspberry Pi k3s cluster</text>
  <g transform="translate(80 486) scale(2.6667)" fill="#ffffff" fill-opacity="0.92"><path d="M10.204 14.35l.007.01-.999 2.413a5.171 5.171 0 0 1-2.075-2.597l2.578-.437.004.005a.44.44 0 0 1 .484.606zm-.833-2.129a.44.44 0 0 0 .173-.756l.002-.011L7.585 9.7a5.143 5.143 0 0 0-.73 3.255l2.514-.725.002-.009zm1.145-1.98a.44.44 0 0 0 .699-.337l.01-.005.15-2.62a5.144 5.144 0 0 0-3.01 1.442l2.147 1.523.004-.002zm.76 2.75l.723.349.722-.347.18-.78-.5-.623h-.804l-.5.623.179.779zm1.5-3.095a.44.44 0 0 0 .7.336l.008.003 2.134-1.513a5.188 5.188 0 0 0-2.992-1.442l.148 2.615.002.001zm10.876 5.97l-5.773 7.181a1.6 1.6 0 0 1-1.248.594l-9.261.003a1.6 1.6 0 0 1-1.247-.596l-5.776-7.18a1.583 1.583 0 0 1-.307-1.34L2.1 5.573c.108-.47.425-.864.863-1.073L11.305.513a1.606 1.606 0 0 1 1.385 0l8.345 3.985c.438.209.755.604.863 1.073l2.062 8.955c.108.47-.005.963-.308 1.34zm-3.289-2.057c-.042-.01-.103-.026-.145-.034-.174-.033-.315-.025-.479-.038-.35-.037-.638-.067-.895-.148-.105-.04-.18-.165-.216-.216l-.201-.059a6.45 6.45 0 0 0-.105-2.332 6.465 6.465 0 0 0-.936-2.163c.052-.047.15-.133.177-.159.008-.09.001-.183.094-.282.197-.185.444-.338.743-.522.142-.084.273-.137.415-.242.032-.024.076-.062.11-.089.24-.191.295-.52.123-.736-.172-.216-.506-.236-.745-.045-.034.027-.08.062-.111.088-.134.116-.217.23-.33.35-.246.25-.45.458-.673.609-.097.056-.239.037-.303.033l-.19.135a6.545 6.545 0 0 0-4.146-2.003l-.012-.223c-.065-.062-.143-.115-.163-.25-.022-.268.015-.557.057-.905.023-.163.061-.298.068-.475.001-.04-.001-.099-.001-.142 0-.306-.224-.555-.5-.555-.275 0-.499.249-.499.555l.001.014c0 .041-.002.092 0 .128.006.177.044.312.067.475.042.348.078.637.056.906a.545.545 0 0 1-.162.258l-.012.211a6.424 6.424 0 0 0-4.166 2.003 8.373 8.373 0 0 1-.18-.128c-.09.012-.18.04-.297-.029-.223-.15-.427-.358-.673-.608-.113-.12-.195-.234-.329-.349-.03-.026-.077-.062-.111-.088a.594.594 0 0 0-.348-.132.481.481 0 0 0-.398.176c-.172.216-.117.546.123.737l.007.005.104.083c.142.105.272.159.414.242.299.185.546.338.743.522.076.082.09.226.1.288l.16.143a6.462 6.462 0 0 0-1.02 4.506l-.208.06c-.055.072-.133.184-.215.217-.257.081-.546.11-.895.147-.164.014-.305.006-.48.039-.037.007-.09.02-.133.03l-.004.002-.007.002c-.295.071-.484.342-.423.608.061.267.349.429.645.365l.007-.001.01-.003.129-.029c.17-.046.294-.113.448-.172.33-.118.604-.217.87-.256.112-.009.23.069.288.101l.217-.037a6.5 6.5 0 0 0 2.88 3.596l-.09.218c.033.084.069.199.044.282-.097.252-.263.517-.452.813-.091.136-.185.242-.268.399-.02.037-.045.095-.064.134-.128.275-.034.591.213.71.248.12.556-.007.69-.282v-.002c.02-.039.046-.09.062-.127.07-.162.094-.301.144-.458.132-.332.205-.68.387-.897.05-.06.13-.082.215-.105l.113-.205a6.453 6.453 0 0 0 4.609.012l.106.192c.086.028.18.042.256.155.136.232.229.507.342.84.05.156.074.295.145.457.016.037.043.09.062.129.133.276.442.402.69.282.247-.118.341-.435.213-.71-.02-.039-.045-.096-.065-.134-.083-.156-.177-.261-.268-.398-.19-.296-.346-.541-.443-.793-.04-.13.007-.21.038-.294-.018-.022-.059-.144-.083-.202a6.499 6.499 0 0 0 2.88-3.622c.064.01.176.03.213.038.075-.05.144-.114.28-.104.266.039.54.138.87.256.154.06.277.128.448.173.036.01.088.019.13.028l.009.003.007.001c.297.064.584-.098.645-.365.06-.266-.128-.537-.423-.608zM16.4 9.701l-1.95 1.746v.005a.44.44 0 0 0 .173.757l.003.01 2.526.728a5.199 5.199 0 0 0-.108-1.674A5.208 5.208 0 0 0 16.4 9.7zm-4.013 5.325a.437.437 0 0 0-.404-.232.44.44 0 0 0-.372.233h-.002l-1.268 2.292a5.164 5.164 0 0 0 3.326.003l-1.27-2.296h-.01zm1.888-1.293a.44.44 0 0 0-.27.036.44.44 0 0 0-.214.572l-.003.004 1.01 2.438a5.15 5.15 0 0 0 2.081-2.615l-2.6-.44-.004.005z"/></g>
  <g transform="translate(176 486) scale(2.6667)" fill="#ffffff" fill-opacity="0.92"><path d="M12.337 0c-.475 0-.861 1.016-.861 2.269 0 .527.069 1.011.183 1.396a8.514 8.514 0 0 0-3.961 1.22 5.229 5.229 0 0 0-.595-1.093c-.606-.866-1.34-1.436-1.79-1.43a.381.381 0 0 0-.217.066c-.39.273-.123 1.326.596 2.353.267.381.559.705.84.948a8.683 8.683 0 0 0-1.528 1.716h1.734a7.179 7.179 0 0 1 5.381-2.421 7.18 7.18 0 0 1 5.382 2.42h1.733a8.687 8.687 0 0 0-1.32-1.53c.35-.249.735-.643 1.078-1.133.719-1.027.986-2.08.596-2.353a.382.382 0 0 0-.217-.065c-.45-.007-1.184.563-1.79 1.43a4.897 4.897 0 0 0-.676 1.325 8.52 8.52 0 0 0-3.899-1.42c.12-.39.193-.887.193-1.429 0-1.253-.386-2.269-.862-2.269zM1.624 9.443v5.162h1.358v-1.968h1.64v1.968h1.357V9.443H4.62v1.838H2.98V9.443zm5.912 0v5.162h3.21v-1.108H8.893v-.95h1.64v-1.142h-1.64v-.84h1.853V9.443zm4.698 0v5.162h3.218v-1.362h-1.86v-3.8zm4.706 0v5.162h1.364v-2.643l1.357 1.225 1.35-1.232v2.65h1.365V9.443h-.614l-2.1 1.914-2.109-1.914zm-11.82 7.28a8.688 8.688 0 0 0 1.412 1.548 5.206 5.206 0 0 0-.841.948c-.719 1.027-.985 2.08-.596 2.353.39.273 1.289-.338 2.007-1.364a5.23 5.23 0 0 0 .595-1.092 8.514 8.514 0 0 0 3.961 1.219 5.01 5.01 0 0 0-.183 1.396c0 1.253.386 2.269.861 2.269.476 0 .862-1.016.862-2.269 0-.542-.072-1.04-.193-1.43a8.52 8.52 0 0 0 3.9-1.42c.121.4.352.865.675 1.327.719 1.026 1.617 1.637 2.007 1.364.39-.273.123-1.326-.596-2.353-.343-.49-.727-.885-1.077-1.135a8.69 8.69 0 0 0 1.202-1.36h-1.771a7.174 7.174 0 0 1-5.227 2.252 7.174 7.174 0 0 1-5.226-2.252z"/></g>
  <g transform="translate(272 486) scale(2.6667)" fill="#ffffff" fill-opacity="0.92"><path d="M13.983 11.078h2.119a.186.186 0 00.186-.185V9.006a.186.186 0 00-.186-.186h-2.119a.185.185 0 00-.185.185v1.888c0 .102.083.185.185.185m-2.954-5.43h2.118a.186.186 0 00.186-.186V3.574a.186.186 0 00-.186-.185h-2.118a.185.185 0 00-.185.185v1.888c0 .102.082.185.185.185m0 2.716h2.118a.187.187 0 00.186-.186V6.29a.186.186 0 00-.186-.185h-2.118a.185.185 0 00-.185.185v1.887c0 .102.082.185.185.186m-2.93 0h2.12a.186.186 0 00.184-.186V6.29a.185.185 0 00-.185-.185H8.1a.185.185 0 00-.185.185v1.887c0 .102.083.185.185.186m-2.964 0h2.119a.186.186 0 00.185-.186V6.29a.185.185 0 00-.185-.185H5.136a.186.186 0 00-.186.185v1.887c0 .102.084.185.186.186m5.893 2.715h2.118a.186.186 0 00.186-.185V9.006a.186.186 0 00-.186-.186h-2.118a.185.185 0 00-.185.185v1.888c0 .102.082.185.185.185m-2.93 0h2.12a.185.185 0 00.184-.185V9.006a.185.185 0 00-.184-.186h-2.12a.185.185 0 00-.184.185v1.888c0 .102.083.185.185.185m-2.964 0h2.119a.185.185 0 00.185-.185V9.006a.185.185 0 00-.184-.186h-2.12a.186.186 0 00-.186.186v1.887c0 .102.084.185.186.185m-2.92 0h2.12a.185.185 0 00.184-.185V9.006a.185.185 0 00-.184-.186h-2.12a.185.185 0 00-.184.185v1.888c0 .102.082.185.185.185M23.763 9.89c-.065-.051-.672-.51-1.954-.51-.338.001-.676.03-1.01.087-.248-1.7-1.653-2.53-1.716-2.566l-.344-.199-.226.327c-.284.438-.49.922-.612 1.43-.23.97-.09 1.882.403 2.661-.595.332-1.55.413-1.744.42H.751a.751.751 0 00-.75.748 11.376 11.376 0 00.692 4.062c.545 1.428 1.355 2.48 2.41 3.124 1.18.723 3.1 1.137 5.275 1.137.983.003 1.963-.086 2.93-.266a12.248 12.248 0 003.823-1.389c.98-.567 1.86-1.288 2.61-2.136 1.252-1.418 1.998-2.997 2.553-4.4h.221c1.372 0 2.215-.549 2.68-1.009.309-.293.55-.65.707-1.046l.098-.288Z"/></g>
  <g transform="translate(368 486) scale(2.6667)" fill="#ffffff" fill-opacity="0.92"><path d="m19.8955 10.8961-.1726-.3028c.0068-2.1746-1.0022-3.061-2.1788-3.7348.356-.0938.7237-.1711.8245-.6182.6118-.1566.7397-.4398.8011-.7398.16-.1066.6955-.4061.6394-.9211.2998-.2069.4669-.4725.3819-.8487.3222-.3515.407-.6419.2702-.9096.3868-.4805.2152-.7295.05-.9817.2897-.5254.0341-1.0887-.7758-.9944-.3221-.4733-1.0244-.3659-1.133-.3637-.1215-.1519-.2819-.2821-.7755-.219-.3197-.2851-.6771-.2364-1.0458-.0964-.4378-.3403-.7275-.0675-1.0584.0356-.53-.1706-.6513.0631-.9117.1583-.5781-.1203-.7538.1416-1.0309.4182l-.3224-.0063c-.8719.5061-1.305 1.5366-1.4585 2.0664-.1536-.5299-.5858-1.5604-1.4575-2.0664l-.3223.0063C9.942.5014 9.7663.2394 9.1883.3597 8.9279.2646 8.807.0309 8.2766.2015c-.2172-.0677-.417-.2084-.6522-.2012l.0004.0002C7.5017.0041 7.369.049 7.2185.166c-.3688-.1401-.7262-.1887-1.0459.0964-.4936-.0631-.654.0671-.7756.219C5.2887.4791 4.5862.3717 4.264.845c-.8096-.0943-1.0655.4691-.7756.9944-.1653.2521-.3366.5013.05.9819-.1367.2677-.0519.5581.2703.9096-.085.3763.0822.6418.3819.8487-.0561.515.4795.8144.6394.9211.0614.3001.1894.5832.8011.7398.1008.4472.4685.5244.8245.6183-1.1766.6737-2.1856 1.56-2.1788 3.7348l-.1724.3028c-1.3491.8082-2.5629 3.4056-.6648 5.5167.124.6609.3319 1.1355.5171 1.6609.2769 2.117 2.0841 3.1082 2.5608 3.2255.6984.524 1.4423 1.0212 2.449 1.3696.949.964 1.977 1.3314 3.0107 1.3308.0152 0 .0306.0002.0457 0 1.0337.0006 2.0618-.3668 3.0107-1.3308 1.0067-.3483 1.7506-.8456 2.4491-1.3696.4766-.1173 2.2838-1.1085 2.5607-3.2255.1851-.5253.3931-1 .517-1.6609 1.8981-2.1113.6843-4.7089-.6649-5.517zm-1.0386-.3715c-.0704.8759-4.6354-3.0504-3.8472-3.1808 2.1391-.3558 3.9191.896 3.8472 3.1808zm-2.0155 4.3649c-1.1481.7409-2.8025.2626-3.6953-1.0681-.8928-1.3306-.6858-3.0101.4623-3.7509 1.1481-.7409 2.8025-.2627 3.6953 1.068.8927 1.3307.6858 3.0101-.4623 3.751zM13.6591 1.3721c.0396.1967.0843.321.1354.3577.2537-.272.4611-.5506.7878-.8123.0011.1537-.0776.3205.1169.4425.1752-.2356.4119-.4459.7263-.6244-.1514.2611-.026.3404.0554.4486.24-.2059.4681-.4144.9109-.5759-.121.1474-.2902.2914-.1108.4607.2473-.1544.496-.3086 1.0833-.4183-.1323.1475-.4059.295-.2401.4426.3104-.1186.6539-.2047 1.034-.2546-.182.1496-.3337.2963-.1846.4122.3323-.1022.7899-.2398 1.2372-.1212l-.2832.2849c-.0314.0382.6623.0297 1.1202.0364-.167.2321-.3375.4562-.437.8548.0454.0459.2723.0204.4862 0-.2194.4618-.6004.5783-.6893.776.134.1015.32.075.5232.006-.158.3254-.4892.5484-.7509.8123.0662.047.1818.075.4555.0425-.2418.257-.5339.492-.8802.7032.0614.0708.2722.0681.4678.0727-.3136.3069-.7173.466-1.0955.6668.1885.1288.3234.0988.4678.097-.2676.2198-.7225.3342-1.1448.4668.0803.1249.1607.1589.3324.194-.447.2473-1.0873.1343-1.2679.2607.0435.1243.1665.2053.3139.2728-.7197.0418-2.6879-.0262-3.0652-1.5156.7367-.8094 2.0813-1.7593 4.394-2.934-1.7994.6022-3.4229 1.405-4.7817 2.5096-1.5978-.7436-.4965-2.6197.283-3.3645zm-1.6126 5.3718c1.1329-.0123 2.5356.8325 2.53 1.6286-.005.7027-.9851 1.2715-2.5213 1.2607-1.5043-.0177-2.5172-.7148-2.5137-1.3957.003-.5603 1.2282-1.5263 2.505-1.4936zm-5.7646-.6006c.1717-.0351.252-.0692.3323-.194-.4223-.1327-.8772-.247-1.1448-.4668.1444.0018.2792.0318.4678-.097-.3783-.2008-.782-.3599-1.0956-.6668.1955-.0048.4064-.002.4677-.0728-.3462-.2113-.6383-.4463-.8801-.7033.2738.0325.3893.0045.4555-.0425-.2617-.264-.593-.487-.7509-.8123.2032.069.3892.0954.5232-.006-.089-.1977-.47-.3142-.6894-.776.214.0204.4409.0459.4863 0-.0994-.3985-.2698-.6226-.4369-.8547.4579-.0067 1.1516.0018 1.1202-.0364l-.2831-.2849c.4472-.1186.9049.019 1.2371.1213.1492-.1159-.0026-.2626-.1847-.4123.3801.05.7236.1361 1.034.2547.1659-.1476-.1076-.2951-.24-.4426.5872.1097.8361.2639 1.0833.4183.1794-.1694.0103-.3133-.1108-.4607.4428.1615.6709.37.911.5759.0814-.1082.2068-.1875.0554-.4486.3143.1785.5511.3888.7263.6244.1945-.122.1159-.2888.1169-.4426.3267.2618.534.5404.7879.8124.0511-.0366.0959-.161.1354-.3577.7794.7448 1.8807 2.6208.2831 3.3646-1.3589-1.1039-2.9817-1.9064-4.78-2.5086 2.3115 1.174 3.6556 2.1239 4.392 2.9328-.3773 1.4895-2.3455 1.5575-3.0651 1.5157.1473-.0676.2703-.1485.3139-.2728-.1806-.1264-.8209-.0134-1.2679-.2607zm2.8175 1.1334c.7881.1304-3.7769 4.0567-3.8472 3.1809-.0719-2.2846 1.7079-3.5367 3.8472-3.1809zm-4.847 8.7567c-1.1094-.8789-1.4668-3.4529.5901-4.6097 1.2394-.3273.4184 5.051-.5901 4.6097zm4.2656 4.5989c-.6257.3719-2.1452.2187-3.2252-1.3095-.7283-1.2823-.6345-2.5872-.123-2.9705.7648-.4589 1.9464.1609 2.8559 1.2003.7923.9405 1.1536 2.5927.4923 3.0797zm-1.2415-5.6086c-1.1481-.7409-1.3551-2.4203-.4623-3.7511.8928-1.3307 2.5472-1.8089 3.6952-1.068 1.1481.7409 1.3551 2.4203.4623 3.7509-.8926 1.3308-2.5471 1.809-3.6952 1.0682zm4.7948 8.2279c-1.3763.0584-2.7258-1.1105-2.7081-1.5157-.0206-.594 1.6758-1.0578 2.782-1.0306 1.1131-.0479 2.6068.3531 2.6097.8851.0184.5166-1.3547 1.6838-2.6836 1.6612zm2.7584-5.8578c.0081 1.3899-1.226 2.5225-2.7562 2.5299-1.5302.0073-2.7773-1.1135-2.7854-2.5033v-.0265c-.008-1.3899 1.2259-2.5226 2.7562-2.5299 1.5302-.0073 2.7773 1.1134 2.7853 2.5033a.7794.7794 0 0 1 .0001.0265zm3.855 2.0029c-1.186 1.6208-2.7916 1.684-3.3896 1.2325-.6255-.5811-.148-2.3854.7094-3.3747v-.0003c.9812-1.0912 2.0302-1.8037 2.7609-1.2469.4919.4828.7805 2.3008-.0807 3.3894zm1.0724-3.4301c-1.0086.4413-1.8298-4.9372-.5901-4.61 2.0568 1.1569 1.6994 3.731.5901 4.61zm-.0256-8.3279h.2985v-.5304h.2986c.1502 0 .2053.0624.2262.2052.0152.1088.0113.2395.0477.3253h.2984c-.0533-.0763-.0515-.2358-.0571-.3213-.0097-.1373-.0513-.2796-.1977-.3176v-.0037c.1502-.061.2149-.1807.2149-.341 0-.2048-.1539-.3738-.3974-.3738h-.732v1.3573zm.2985-1.1255h.3269c.1333 0 .2054.0573.2054.188 0 .1369-.0721.1942-.2054.1942H20.03v-.3822zm-1.0337.4633c0 .7009.5682 1.2694 1.2695 1.2694s1.2695-.5684 1.2695-1.2694c0-.7013-.5683-1.2697-1.2695-1.2697-.7013 0-1.2695.5684-1.2695 1.2697zm2.3275 0c0 .5845-.4737 1.058-1.058 1.058s-1.058-.4735-1.058-1.058c0-.5849.4737-1.058 1.058-1.058s1.058.4731 1.058 1.058z"/></g>
  <!-- icons row width=352 -->
</svg>
